<mxfile host="65bd71144e">
    <diagram id="slgrm9MrEHTDeiDjQKYN" name="Página-1">
        <mxGraphModel dx="1452" dy="1641" grid="1" gridSize="10" guides="1" tooltips="1" connect="1" arrows="1" fold="1" page="1" pageScale="1" pageWidth="827" pageHeight="1169" math="0" shadow="0">
            <root>
                <mxCell id="0"/>
                <mxCell id="1" parent="0"/>
                <mxCell id="166" style="edgeStyle=none;html=1;entryX=0.525;entryY=1.037;entryDx=0;entryDy=0;entryPerimeter=0;endArrow=diamondThin;endFill=1;" edge="1" parent="1" source="18" target="30">
                    <mxGeometry relative="1" as="geometry"/>
                </mxCell>
                <mxCell id="18" value="Producto" style="swimlane;fontStyle=0;align=center;verticalAlign=top;childLayout=stackLayout;horizontal=1;startSize=55;horizontalStack=0;resizeParent=1;resizeParentMax=0;resizeLast=0;collapsible=0;marginBottom=0;html=1;" parent="1" vertex="1">
                    <mxGeometry x="160" y="-60" width="170" height="190" as="geometry"/>
                </mxCell>
                <mxCell id="19" value="id&lt;br&gt;tipo&amp;nbsp;&lt;br&gt;nombre_producto&lt;br&gt;cantidad_actual&lt;br&gt;cantidad_minima&lt;br&gt;precioBase" style="text;html=1;strokeColor=none;fillColor=none;align=left;verticalAlign=middle;spacingLeft=4;spacingRight=4;overflow=hidden;rotatable=0;points=[[0,0.5],[1,0.5]];portConstraint=eastwest;" parent="18" vertex="1">
                    <mxGeometry y="55" width="170" height="95" as="geometry"/>
                </mxCell>
                <mxCell id="23" value="" style="line;strokeWidth=1;fillColor=none;align=left;verticalAlign=middle;spacingTop=-1;spacingLeft=3;spacingRight=3;rotatable=0;labelPosition=right;points=[];portConstraint=eastwest;" parent="18" vertex="1">
                    <mxGeometry y="150" width="170" height="8" as="geometry"/>
                </mxCell>
                <mxCell id="25" value="calcular_precio_final()&lt;br&gt;" style="text;html=1;strokeColor=none;fillColor=none;align=left;verticalAlign=middle;spacingLeft=4;spacingRight=4;overflow=hidden;rotatable=0;points=[[0,0.5],[1,0.5]];portConstraint=eastwest;" parent="18" vertex="1">
                    <mxGeometry y="158" width="170" height="32" as="geometry"/>
                </mxCell>
                <mxCell id="26" value="Tienda" style="swimlane;fontStyle=1;align=center;verticalAlign=top;childLayout=stackLayout;horizontal=1;startSize=55;horizontalStack=0;resizeParent=1;resizeParentMax=0;resizeLast=0;collapsible=0;marginBottom=0;html=1;" parent="1" vertex="1">
                    <mxGeometry x="160" y="-350" width="160" height="220" as="geometry"/>
                </mxCell>
                <mxCell id="27" value="ID&lt;br&gt;Nombre_tienda&lt;br&gt;Producto&lt;br&gt;" style="text;html=1;strokeColor=none;fillColor=none;align=left;verticalAlign=middle;spacingLeft=4;spacingRight=4;overflow=hidden;rotatable=0;points=[[0,0.5],[1,0.5]];portConstraint=eastwest;" parent="26" vertex="1">
                    <mxGeometry y="55" width="160" height="75" as="geometry"/>
                </mxCell>
                <mxCell id="28" value="" style="line;strokeWidth=1;fillColor=none;align=left;verticalAlign=middle;spacingTop=-1;spacingLeft=3;spacingRight=3;rotatable=0;labelPosition=right;points=[];portConstraint=eastwest;" parent="26" vertex="1">
                    <mxGeometry y="130" width="160" height="8" as="geometry"/>
                </mxCell>
                <mxCell id="30" value="Visualizar_producto()&lt;br&gt;VenderProducto()&lt;br&gt;AbastecerProducto()&lt;br&gt;CambiarProducto()&lt;br&gt;CalcularEstasisticaVentas()" style="text;html=1;strokeColor=none;fillColor=none;align=left;verticalAlign=middle;spacingLeft=4;spacingRight=4;overflow=hidden;rotatable=0;points=[[0,0.5],[1,0.5]];portConstraint=eastwest;" parent="26" vertex="1">
                    <mxGeometry y="138" width="160" height="82" as="geometry"/>
                </mxCell>
                <mxCell id="46" style="edgeStyle=none;html=1;exitX=0.5;exitY=0;exitDx=0;exitDy=0;entryX=0.286;entryY=1.1;entryDx=0;entryDy=0;entryPerimeter=0;endArrow=block;endFill=0;endSize=12;" parent="1" source="31" target="25" edge="1">
                    <mxGeometry relative="1" as="geometry"/>
                </mxCell>
                <mxCell id="31" value="Papeleria" style="swimlane;fontStyle=0;align=center;verticalAlign=top;childLayout=stackLayout;horizontal=1;startSize=55;horizontalStack=0;resizeParent=1;resizeParentMax=0;resizeLast=0;collapsible=0;marginBottom=0;html=1;" parent="1" vertex="1">
                    <mxGeometry x="10" y="270" width="140" height="98" as="geometry"/>
                </mxCell>
                <mxCell id="32" value="&amp;nbsp;&lt;br&gt;iva" style="text;html=1;strokeColor=none;fillColor=none;align=left;verticalAlign=middle;spacingLeft=4;spacingRight=4;overflow=hidden;rotatable=0;points=[[0,0.5],[1,0.5]];portConstraint=eastwest;" parent="31" vertex="1">
                    <mxGeometry y="55" width="140" height="35" as="geometry"/>
                </mxCell>
                <mxCell id="33" value="" style="line;strokeWidth=1;fillColor=none;align=left;verticalAlign=middle;spacingTop=-1;spacingLeft=3;spacingRight=3;rotatable=0;labelPosition=right;points=[];portConstraint=eastwest;" parent="31" vertex="1">
                    <mxGeometry y="90" width="140" height="8" as="geometry"/>
                </mxCell>
                <mxCell id="47" style="edgeStyle=none;html=1;exitX=0.5;exitY=0;exitDx=0;exitDy=0;endArrow=block;endFill=0;endSize=12;" parent="1" source="36" target="18" edge="1">
                    <mxGeometry relative="1" as="geometry"/>
                </mxCell>
                <mxCell id="36" value="Supermercado" style="swimlane;fontStyle=0;align=center;verticalAlign=top;childLayout=stackLayout;horizontal=1;startSize=55;horizontalStack=0;resizeParent=1;resizeParentMax=0;resizeLast=0;collapsible=0;marginBottom=0;html=1;" parent="1" vertex="1">
                    <mxGeometry x="180" y="270" width="140" height="110" as="geometry"/>
                </mxCell>
                <mxCell id="52" value="&amp;nbsp;&lt;br&gt;&lt;div style=&quot;&quot;&gt;&lt;span style=&quot;background-color: initial;&quot;&gt;iva&amp;nbsp;&lt;/span&gt;&lt;/div&gt;" style="text;html=1;align=left;verticalAlign=middle;resizable=0;points=[];autosize=1;strokeColor=none;fillColor=none;" parent="36" vertex="1">
                    <mxGeometry y="55" width="140" height="40" as="geometry"/>
                </mxCell>
                <mxCell id="38" value="&#10;&#10;" style="line;strokeWidth=1;fillColor=none;align=left;verticalAlign=middle;spacingTop=-1;spacingLeft=3;spacingRight=3;rotatable=0;labelPosition=right;points=[];portConstraint=eastwest;" parent="36" vertex="1">
                    <mxGeometry y="95" width="140" height="15" as="geometry"/>
                </mxCell>
                <mxCell id="48" style="edgeStyle=none;html=1;exitX=0.5;exitY=0;exitDx=0;exitDy=0;endArrow=block;endFill=0;endSize=12;" parent="1" source="41" target="18" edge="1">
                    <mxGeometry relative="1" as="geometry"/>
                </mxCell>
                <mxCell id="41" value="Droguería" style="swimlane;fontStyle=0;align=center;verticalAlign=top;childLayout=stackLayout;horizontal=1;startSize=55;horizontalStack=0;resizeParent=1;resizeParentMax=0;resizeLast=0;collapsible=0;marginBottom=0;html=1;" parent="1" vertex="1">
                    <mxGeometry x="344" y="275" width="140" height="100" as="geometry"/>
                </mxCell>
                <mxCell id="53" value="&lt;br&gt;iva&amp;nbsp;" style="text;html=1;align=left;verticalAlign=middle;resizable=0;points=[];autosize=1;strokeColor=none;fillColor=none;" parent="41" vertex="1">
                    <mxGeometry y="55" width="140" height="40" as="geometry"/>
                </mxCell>
                <mxCell id="43" value="" style="line;strokeWidth=1;fillColor=none;align=left;verticalAlign=middle;spacingTop=-1;spacingLeft=3;spacingRight=3;rotatable=0;labelPosition=right;points=[];portConstraint=eastwest;" parent="41" vertex="1">
                    <mxGeometry y="95" width="140" height="5" as="geometry"/>
                </mxCell>
                <mxCell id="147" style="edgeStyle=none;html=1;endArrow=diamondThin;endFill=1;" parent="1" source="142" target="26" edge="1">
                    <mxGeometry relative="1" as="geometry"/>
                </mxCell>
                <mxCell id="142" value="EstadisticaVentas" style="swimlane;fontStyle=0;align=center;verticalAlign=top;childLayout=stackLayout;horizontal=1;startSize=55;horizontalStack=0;resizeParent=1;resizeParentMax=0;resizeLast=0;collapsible=0;marginBottom=0;html=1;" parent="1" vertex="1">
                    <mxGeometry x="-150" y="-350" width="210" height="220" as="geometry"/>
                </mxCell>
                <mxCell id="158" value="Detalle_venta [ ]" style="text;html=1;strokeColor=none;fillColor=none;align=left;verticalAlign=middle;spacingLeft=4;spacingRight=4;overflow=hidden;rotatable=0;points=[[0,0.5],[1,0.5]];portConstraint=eastwest;" parent="142" vertex="1">
                    <mxGeometry y="55" width="210" height="70" as="geometry"/>
                </mxCell>
                <mxCell id="144" value="" style="line;strokeWidth=1;fillColor=none;align=left;verticalAlign=middle;spacingTop=-1;spacingLeft=3;spacingRight=3;rotatable=0;labelPosition=right;points=[];portConstraint=eastwest;" parent="142" vertex="1">
                    <mxGeometry y="125" width="210" height="25" as="geometry"/>
                </mxCell>
                <mxCell id="146" value="obtener_producto_mas_vendido( )&lt;br&gt;obtener_producto_menos_vendido( )&lt;br&gt;obtener_total_dinero_caja( )&lt;br&gt;obtener_promedioProducto ( )" style="text;html=1;strokeColor=none;fillColor=none;align=left;verticalAlign=middle;spacingLeft=4;spacingRight=4;overflow=hidden;rotatable=0;points=[[0,0.5],[1,0.5]];portConstraint=eastwest;" parent="142" vertex="1">
                    <mxGeometry y="150" width="210" height="70" as="geometry"/>
                </mxCell>
                <mxCell id="150" value="DetalleVenta" style="swimlane;fontStyle=0;align=center;verticalAlign=top;childLayout=stackLayout;horizontal=1;startSize=55;horizontalStack=0;resizeParent=1;resizeParentMax=0;resizeLast=0;collapsible=0;marginBottom=0;html=1;" parent="1" vertex="1">
                    <mxGeometry x="400" y="-322" width="140" height="230" as="geometry"/>
                </mxCell>
                <mxCell id="151" value="id&lt;br&gt;Tienda&lt;br&gt;Producto&lt;br&gt;EstadisticaVentas&lt;br&gt;nombre_tienda&lt;br&gt;nombre_producto&lt;br&gt;precio_base&lt;br&gt;cantidad_minima&lt;br&gt;cantidad_bodega&lt;br&gt;tipo" style="text;html=1;align=left;verticalAlign=middle;resizable=0;points=[];autosize=1;strokeColor=none;fillColor=none;" parent="150" vertex="1">
                    <mxGeometry y="55" width="140" height="160" as="geometry"/>
                </mxCell>
                <mxCell id="152" value="&#10;&#10;" style="line;strokeWidth=1;fillColor=none;align=left;verticalAlign=middle;spacingTop=-1;spacingLeft=3;spacingRight=3;rotatable=0;labelPosition=right;points=[];portConstraint=eastwest;" parent="150" vertex="1">
                    <mxGeometry y="215" width="140" height="15" as="geometry"/>
                </mxCell>
                <mxCell id="155" style="edgeStyle=none;html=1;entryX=0;entryY=0.364;entryDx=0;entryDy=0;entryPerimeter=0;endArrow=diamond;endFill=1;endSize=12;" parent="1" source="27" target="150" edge="1">
                    <mxGeometry relative="1" as="geometry"/>
                </mxCell>
                <mxCell id="159" value="Nomina" style="swimlane;fontStyle=0;align=center;verticalAlign=top;childLayout=stackLayout;horizontal=1;startSize=55;horizontalStack=0;resizeParent=1;resizeParentMax=0;resizeLast=0;collapsible=0;marginBottom=0;html=1;" vertex="1" parent="1">
                    <mxGeometry x="590" y="-390" width="190" height="230" as="geometry"/>
                </mxCell>
                <mxCell id="164" value="id &lt;br&gt;detalle&lt;br&gt;tipo&amp;nbsp;&lt;br&gt;precio_base&lt;br&gt;cantidad_minimna&lt;br&gt;cantidad_bodega" style="text;html=1;align=left;verticalAlign=middle;resizable=0;points=[];autosize=1;strokeColor=none;fillColor=none;" vertex="1" parent="159">
                    <mxGeometry y="55" width="190" height="100" as="geometry"/>
                </mxCell>
                <mxCell id="161" value="&#10;&#10;" style="line;strokeWidth=1;fillColor=none;align=left;verticalAlign=middle;spacingTop=-1;spacingLeft=3;spacingRight=3;rotatable=0;labelPosition=right;points=[];portConstraint=eastwest;" vertex="1" parent="159">
                    <mxGeometry y="155" width="190" height="45" as="geometry"/>
                </mxCell>
                <mxCell id="162" value="Mostrar( )" style="text;html=1;align=left;verticalAlign=middle;resizable=0;points=[];autosize=1;strokeColor=none;fillColor=none;" vertex="1" parent="159">
                    <mxGeometry y="200" width="190" height="30" as="geometry"/>
                </mxCell>
                <mxCell id="163" style="edgeStyle=none;html=1;endArrow=diamondThin;endFill=1;" edge="1" parent="1" source="151" target="159">
                    <mxGeometry relative="1" as="geometry"/>
                </mxCell>
            </root>
        </mxGraphModel>
    </diagram>
</mxfile>